<?xml version="1.0" encoding="utf-8"?>
<!-- Generator: Adobe Illustrator 21.1.0, SVG Export Plug-In . SVG Version: 6.00 Build 0)  -->
<svg version="1.1" id="Calque_1" xmlns="http://www.w3.org/2000/svg" xmlns:xlink="http://www.w3.org/1999/xlink" x="0px" y="0px"
	 viewBox="0 0 432 432" style="enable-background:new 0 0 432 432;" xml:space="preserve">
<style type="text/css">
	.st0{fill:#AE3034;}
	.st1{fill:#3E904D;}
	.st2{fill:#F7EB5B;}
	.st3{fill:#221F20;}
	.st4{fill:#BC9A72;}
	.st5{fill:#FFFFFF;}
	.st6{fill:#E9963E;}
	.st7{fill:#EFB156;}
	.st8{fill:#5EB057;}
	.st9{fill:#A27D56;}
	.st10{fill:#BD8346;}
	.st11{fill:#DD658D;}
	.st12{fill:#404041;}
	.st13{fill:#81BF8E;}
	.st14{fill:#ED7E87;}
	.st15{fill:#B0202B;}
	.st16{fill:#BA9453;}
	.st17{fill:#B99352;}
	.st18{fill:#45A49C;}
	.st19{fill:#59B178;}
	.st20{fill:#C9A25F;}
	.st21{fill:#BCBDBF;}
	.st22{fill:#C7345D;}
	.st23{fill:#2E3192;}
	.st24{fill:#8CC63F;}
	.st25{fill:#22B573;}
	.st26{fill:#333333;}
	.st27{fill:#B1A097;}
	.st28{fill:#574B43;}
	.st29{fill:#85328A;}
	.st30{fill:#53A7DB;}
	.st31{fill:#912D61;}
	.st32{fill:#835F41;}
	.st33{fill:#929496;}
	.st34{fill:#808080;}
	.st35{fill:#6F4E2F;}
	.st36{fill:#A6A8AA;}
	.st37{fill:#DF643A;}
	.st38{fill:#98C355;}
	.st39{fill:#D35998;}
	.st40{fill:#6F665A;}
	.st41{fill:#BFB49D;}
	.st42{fill:#AE82B3;}
	.st43{fill:#B3B3B3;}
	.st44{fill:#5E328B;}
	.st45{fill:#DA404D;}
	.st46{fill:#A994C1;}
	.st47{fill:#8B575B;}
	.st48{fill:#C9C0AF;}
	.st49{fill:#A67C52;}
	.st50{fill:#86A391;}
	.st51{fill:#6595A9;}
	.st52{fill:#483E49;}
	.st53{fill:#F6BA00;}
	.st54{fill:#FC8080;}
	.st55{fill:#1A1A1A;}
	.st56{fill:#749FA8;}
	.st57{fill:#ABC337;}
	.st58{fill:#F67E20;}
	.st59{fill:#52A9B2;}
	.st60{fill:#925A8B;}
	.st61{fill:#DD8383;}
	.st62{fill:#929C3B;}
	.st63{fill:#4D4D4D;}
	.st64{fill:#C69C6D;}
	.st65{fill:#DBB753;}
	.st66{fill:#9EB9B4;}
	.st67{fill:#F2F2F2;}
	.st68{fill:#E2C87F;}
	.st69{fill:#E8BDC4;}
	.st70{fill:#D86D29;}
	.st71{fill:#E0CDAD;}
	.st72{fill:#E6E6E6;}
	.st73{fill:#CCD6CE;}
	.st74{fill:#9FD3C7;}
	.st75{fill-rule:evenodd;clip-rule:evenodd;}
	.st76{fill:#E5BE51;}
	.st77{fill:#B3A693;}
	.st78{fill:#717370;}
	.st79{fill:#9FB14D;}
	.st80{fill:#736357;}
	.st81{fill:#51642D;}
	.st82{fill:#743315;}
	.st83{fill:#0071BC;}
	.st84{fill:#9C1B20;}
	.st85{fill:#009245;}
	.st86{fill:#F6E6CC;}
	.st87{fill:#84CBCB;}
	.st88{fill:#7D9B39;}
	.st89{fill:#3C4E5C;}
	.st90{fill:#998675;}
	.st91{fill:#C7B299;}
	.st92{fill:#9B2F10;}
	.st93{fill:#E7A136;}
	.st94{fill:#978E43;}
	.st95{fill:#7D5E18;}
	.st96{fill:#F2C545;}
	.st97{fill:#E07D28;}
	.st98{fill:#E0D2BE;}
	.st99{fill:#C4A18D;}
	.st100{fill:#BCBD84;}
	.st101{fill:#5F645E;}
	.st102{fill:#CAC2C2;}
	.st103{fill:#959736;}
	.st104{fill:#B0D24A;}
	.st105{fill:#754C24;}
	.st106{fill:#603813;}
	.st107{fill:#8C4A33;}
	.st108{fill:#0B493A;}
	.st109{fill:#C17953;}
	.st110{fill:#F7C64D;}
	.st111{fill:#005371;}
	.st112{fill:#D3E2DC;}
	.st113{fill:#3E8A64;}
	.st114{fill:#299798;}
	.st115{fill:#731115;}
	.st116{fill:#4F4544;}
	.st117{fill:#4C6047;}
	.st118{fill:#4C301C;}
	.st119{fill:#867274;}
	.st120{fill:#C13F47;}
	.st121{fill:#BC8AA8;}
	.st122{fill:#634E42;}
	.st123{fill:#E1B8D7;}
	.st124{fill:#6D866B;}
	.st125{fill:#422918;}
	.st126{fill:#925F36;}
	.st127{fill:#1D1D1B;}
	.st128{fill:#00A099;}
	.st129{fill:#F8B133;}
	.st130{fill:#006633;}
	.st131{fill:#683B11;}
	.st132{fill:#B17F49;}
	.st133{fill:#A3897A;}
	.st134{fill:#E488B5;}
	.st135{fill:#93C01F;}
	.st136{fill:#EDE287;}
	.st137{fill:#E9CB9A;}
	.st138{fill:#EAB8CC;}
	.st139{fill:#7E4E24;}
	.st140{fill:#E5332A;}
	.st141{fill:#F29100;}
</style>
<g>
	<path class="st118" d="M344.9,209.4c-0.7-1.4-2.2-2.1-3.7-1.6c-0.7,0.2-1.4,0.6-1.9,1c-1,0.8-2,1.7-2.9,2.6c-1.5,1.5-2.9,3-4.4,4.4
		c-3.4,3.5-7.3,6.4-11.9,8.1c-2.9,1.1-5.9,2-8.8,2.9c-1.2,0.4-2.5,0.5-3.8,0.6c-1.9,0.1-3.7-0.1-5.6-0.5c-4.1-0.7-8.2-0.9-12.3-0.9
		c-2.3,0-4.5,0.1-6.8,0.1c-3.3,0-6.7-0.3-10-0.9c-4.2-0.8-8.5-1.6-12.7-2.6c-5.4-1.2-10.6-3-15.4-5.8c-7.5-4.4-14.6-9.6-20.9-15.5
		c-6-5.7-10.4-12.4-13-20.3c-2.2-6.6-2.9-13.3-2.8-20.2c0.1-3.2,0.3-6.3,0.4-9.5c0.1-2,0.3-4,0.4-6.1c0.2-3.7,0.5-7.4,0.6-11.1
		c0.1-2.9,0-5.9-0.1-8.8c-0.1-2.3-0.3-4.6-0.4-6.9c-0.3-3.5-0.6-7-0.6-10.5c0-4.1,0.7-8.2,2.2-12c1-2.6,2.2-5.3,3.3-7.9
		c1.9-4.4,3.8-8.8,5.3-13.3c0.6-1.7,1.1-3.4,1.2-5.2c0.2-2.9-1.5-4.5-4.4-4c-1.5,0.3-2.8,0.7-4.1,1.4c-1.6,0.8-3.1,1.6-4.7,2.5
		c-1.6,0.8-3.2,1.7-4.8,2.5c-0.5,0.2-1,0.3-1.5,0.5c-0.4-0.7-0.4-1.4-0.5-2c-0.2-1.3-0.3-2.6-1-3.8c-0.9-1.6-2.3-2.2-4.1-1.7
		c-0.9,0.3-1.7,0.7-2.4,1.2c-1.7,1.2-3.3,2.5-4.8,3.8c-3.5,3-6.9,6-10.3,9c-1.9,1.6-3.9,3.1-6,4.5c-1.6,1-3.3,1.5-5.1,1.3
		c-0.7,0-1.3-0.1-2-0.2c-2.2-0.3-4.4-0.6-6.5-0.8c-2.3-0.2-4.7-0.1-7,0.3c-5.2,0.9-9.6,3.4-13.3,7.1c-1.8,1.8-3.5,3.8-5.2,5.8
		c-1.2,1.4-2.3,2.9-3.5,4.4c-2,2.4-4.2,4.3-7.1,5.5c-2,0.8-4.2,1.2-6.3,1.5c-3,0.4-6,0.7-9,1c-2.7,0.2-5.4,0.4-8.1,0.1
		c-3.3-0.3-6.2,0.6-8.8,2.7c-1.6,1.3-2.6,2.9-3,5c-0.4,1.9-0.1,3.7,0.3,5.5c1.3,5.1,3.5,9.6,7.4,13.3c1.6,1.5,3.2,3.1,4.8,4.7
		c3.6,3.4,7.7,6,12.3,7.8c4.4,1.7,9,2.5,13.7,3.1c3.8,0.5,7.7,1,11.5,1.5c2.7,0.3,5.4,0.6,8.1,0.7c3,0.1,6,0,9.1-0.1
		c3.1-0.1,6.3-0.1,9.4-0.7c0.7-0.1,0.9,0.1,0.8,0.8c0,0.1-0.1,0.3-0.1,0.4c-0.5,2.4-1.3,4.7-2.3,7c-2.1,5.1-5.1,9.5-8.9,13.4
		c-1.8,1.8-3.5,3.6-5.2,5.5c-1.1,1.3-2.2,2.6-3.3,3.9c-0.6,0.8-0.9,1.7-0.8,2.7c0.2,1.4-0.2,2.6-0.8,3.8c-1,1.9-2.1,3.8-3.1,5.7
		c-0.7,1.3-1.3,2.6-2,3.9c-0.4,0.8-0.6,1.7-0.5,2.6c0.1,0.6-0.1,1.2-0.3,1.7c-0.4,1.1-0.9,2.2-1.3,3.3c-1,2.6-2,5.2-3,7.8
		c-0.5,1.4-0.7,2.8-0.7,4.3c0.1,1.8,0.7,2.6,2.4,2.9c0.5,0.1,0.8,0.3,0.9,0.8c0.1,0.7,0.2,1.5,0.2,2.2c0.2,2.8,0.3,5.7,0.5,8.5
		c0.4,4.3,1.4,8.4,3.1,12.3c2.6,6.1,6,11.7,9.9,17.1c3.1,4.2,6.5,8.2,10.5,11.5c2,1.6,4,3.2,6.1,4.8c2.5,1.9,4,4.4,4.7,7.4
		c0.5,2.3,0.6,4.7,0.5,7.1c-0.2,3.5,0,7,0.3,10.5c0.4,4.3,0.7,8.5,0.6,12.8c0,2.8-0.4,5.6-1,8.3c-0.8,3.2-2,6.1-4.3,8.6
		c-1.9,2.1-4.1,3.9-6.6,5.2c-1.9,0.9-3.8,1.9-5.7,2.8c-1.9,1-3.8,2-5.5,3.5c-1,0.8-1.9,1.8-2.5,2.9c-0.9,1.8-0.9,3.6,0.2,5.3
		c0.6,0.9,1.4,1.5,2.3,2c1.5,0.8,3.2,1.1,4.9,1.2c5.2,0.2,10.4,0.3,15.6,0.1c1.7-0.1,1.4-0.3,2.2,1.3c0.8,1.6,2.1,2.8,3.7,3.6
		c1.6,0.8,3.3,1.2,5,1.5c2.2,0.3,4.3,0.1,6.5-0.1c3.3-0.3,6.7-0.6,10-0.8c2.6-0.2,5.2-0.2,7.7,0c1.4,0.1,2.8,0.1,4.1,0
		c3.6-0.2,6.2-2.5,6.9-6c0.2-0.9,0.3-1.9,0.2-2.9c-0.2-2.2-0.5-4.4-0.8-6.5c-0.4-3.2-0.9-6.5-0.8-9.7c0.1-6.3,0.2-12.7,0.3-19
		c0.1-5.7,0.1-11.3,0.2-17c0-3.5,0.2-7,0.7-10.5c0.4-2.2,0.9-4.4,1.9-6.5c1.3-2.6,3.3-4.3,6.1-5.2c2.7-0.8,5.4-0.9,8.1-0.6
		c5.5,0.5,10.9,0.8,16.4,0.6c3.6-0.1,7.1,0,10.6,0.4c3.4,0.4,6.8,1,10,2.5c3.8,1.7,7.2,3.8,10.1,6.7c1.1,1.1,2.2,2.2,3.4,3.3
		c1.5,1.4,2.9,2.8,4.4,4.1c1.5,1.3,3.1,2.6,4.6,3.9c4.1,3.6,7.1,7.9,9,13c1.2,3.3,1.5,6.6,1,10c-0.4,2.6-0.8,5.2-1.2,7.8
		c-0.3,1.9-0.7,3.8-1.5,5.5c-1,1.9-2.5,3.3-4.6,3.8c-1.1,0.3-2.3,0.6-3.4,0.7c-3.7,0.4-7.3,1-10.9,2.1c-1.4,0.4-2.8,0.9-4.2,1.4
		c-1,0.4-1.9,0.9-2.7,1.7c-1.5,1.6-1.6,3.6-0.1,5.2c0.4,0.4,0.8,0.8,1.2,1.1c3.2,2.4,6.9,3.7,10.8,4c2.1,0.2,4.3,0.2,6.4,0.4
		c0.6,0,1.3,0.1,2,0.2c-0.3,0.9-0.6,1.6-0.7,2.3c-0.7,2.8,0.3,5.7,3.7,6.8c0.4,0.1,0.8,0.3,1.3,0.3c1.4,0.1,2.8,0.3,4.2,0.3
		c4,0,7.9,0,11.9,0c3.2,0,6.3-0.7,9.3-1.9c4.2-1.8,7.1-4.7,8.5-9.1c0.1-0.5,0.3-1,0.4-1.4c1.3-4.3,1.6-8.6,1.9-13
		c0.2-3,0.4-6.1,0.7-9.1c0.6-6.1,1.8-12.2,3.3-18.1c0.9-3.4,1.8-6.9,2.6-10.3c0.6-2.5,0.8-5.1,0.3-7.7c-0.4-2.4-1.3-4.6-2.5-6.6
		c-0.9-1.5-1.8-3-2.8-4.5c-1.7-2.8-3.3-5.7-4.5-8.7c-1.9-4.6-2.5-9.4-2.8-14.3c-0.1-2-0.1-4-0.3-6c-0.2-3.2-0.8-6.3-1.4-9.5
		c-0.2-0.9-0.3-1.8-0.4-2.7c-0.1-1.7,0.3-3.3,1.4-4.6c1.1-1.4,2.3-2.8,3.6-4.1c3.3-3.3,6.3-7,9-10.8c1.8-2.6,3.5-5.2,4.7-8.2
		c0.5-1.1,0.8-2.3,1.1-3.4C345.5,211.8,345.5,210.6,344.9,209.4z M97.8,121.2c-0.6,1-1.4,1.8-2.4,2.4c-1.8,1.3-3.9,1-5.3-0.7
		c-1.5-1.8-1.9-3.9-1.1-6.2c0.6-1.4,1.4-2.7,2.7-3.6c0.9-0.6,1.8-1.3,2.8-1.9c1.1-0.6,2.3-1,3.5-0.8c1.4,0.2,2.1,0.9,2.1,2.3
		c0,0.4,0,0.8,0,1c0.1,1.4,0,2.6-0.5,3.7C99.1,118.8,98.5,120,97.8,121.2z M115.2,138.7c-0.5,0.1-1,0.1-1.6,0.2
		c-0.9,0.1-1.6-0.3-2-1c-0.3-0.5-0.6-1.1-0.7-1.7c-0.4-1.4-0.8-2.8-1.2-4.2c-2.1-0.8-4.2-1.6-6.4-2.4c-0.4,0.6-0.8,1.3-1.3,2
		c-0.3,0.4-0.6,0.8-1,1.1c-0.3,0.3-0.7,0.3-1.1,0.1c-0.4-0.3-0.3-0.7-0.2-1c0.1-0.2,0.1-0.3,0.2-0.5c1.7-2.9,3.4-5.9,5.1-8.8
		c1-1.8,2-3.5,3-5.2c0.1-0.2,0.2-0.3,0.3-0.5c0.8-1.2,2.3-1.4,3.3-0.3c0.5,0.5,0.9,1.2,1.2,1.9c0.5,1.5,1,3,1.3,4.6
		c0.7,3.4,1.3,6.8,1.9,10.3c0.2,1.2,0.4,2.4,0.6,3.6C116.9,137.9,116.4,138.6,115.2,138.7z M313.9,230.2c1.3-2.3,3.3-3.5,6-3.4
		c2.1,0.1,3.9,1.6,4.3,3.5c0.3,1.6-0.4,3.3-1.8,3.9c-0.5,0.2-1,0.3-1.5,0.3c-0.4,0-0.8-0.3-0.9-0.7c-0.1-0.5,0.2-0.8,0.5-1
		c0.2-0.2,0.5-0.3,0.8-0.4c1-0.8,0.9-2.3-0.3-2.9c-1.2-0.6-2.9-0.1-3.8,1c-0.8,1-1.1,2.1-1.3,3.3c-0.1,0.4-0.1,0.9-0.1,1.3
		c0,1.7,0.5,3.4,1.1,5c0.8,2.1,1.8,4.2,2.6,6.4c1.4,3.7,1.9,7.6,1.7,11.6c-0.1,1.1-0.3,2.1-0.5,3.2c0,0.2-0.1,0.4-0.2,0.6
		c-0.3,0.5-0.6,0.8-1.1,0.7c-0.5-0.1-0.8-0.4-0.9-1c-0.1-0.7-0.1-1.5,0-2.2c0.5-4.4-0.2-8.6-1.9-12.7c-0.8-1.9-1.7-3.7-2.5-5.5
		c-0.7-1.7-1.3-3.5-1.3-5.4C312.6,233.6,312.9,231.8,313.9,230.2z M308.1,311c-0.2-0.3-0.3-0.6-0.5-0.9c-0.1-0.4,0-0.8,0.3-1
		c0.3-0.3,0.7-0.4,1.1-0.1c0.3,0.2,0.7,0.5,0.9,0.8c0.8,1.1,1.2,2.4,1.1,3.7c0,1.8-0.4,3.4-1.2,4.9c-0.8,1.6-1.7,3.1-2.5,4.6
		c-0.6,1.1-1.1,2.2-1.3,3.4c-0.1,0.8-0.1,1.7,0.6,2.1c0.8,0.5,1.6,0.2,2.3-0.2c0.1-0.1,0.2-0.2,0.4-0.3c0.3-0.2,0.7-0.3,1.1-0.1
		c0.4,0.2,0.5,0.6,0.5,1c0,0.7-0.4,1.3-1,1.7c-2.3,1.6-5.8,1.2-6.8-2.4c-0.4-1.5-0.2-2.9,0.4-4.3c0.6-1.2,1.2-2.4,1.9-3.6
		c0.7-1.3,1.6-2.6,2.3-3.9c0.6-1.1,1-2.3,0.9-3.6C308.6,312.1,308.4,311.6,308.1,311z M310.6,346.8c0.5-1.8,1.1-3.7,1.4-5.5
		c0.5-2.6,0.9-5.2,1.2-7.8c0.8-5.6,1.5-11.3,2.3-16.9c0.3-2.2,0.8-4.3,1.9-6.3c0.2-0.4,0.3-0.9,0.9-0.9c0.5,0,0.7,0.5,0.9,0.9
		c0.3,0.6,0.5,1.3,0.7,2c0.5,2,0.5,4.1,0.5,6.1c0.1,4.3-0.1,8.6-0.5,12.9c-0.3,2.9-0.6,5.8-1.4,8.6c-0.4,1.7-1.1,3.3-2,4.7
		c-0.7,1.1-1.7,2.1-2.9,2.7c-0.9,0.5-1.8,0.9-2.7,1.3c-0.2,0.1-0.4,0.1-0.7,0.2C310.4,348,310.5,347.4,310.6,346.8z M319.8,305.5
		c-1.3,0.8-2.7,1.3-4.2,1.5c-2.3,0.4-4.3-0.3-6-1.7c-2-1.7-3.2-3.9-3.8-6.5c-0.6-2.3-0.9-4.6-0.3-7c0.6-2.3,1.8-4.1,3.9-5.3
		c1.9-1.1,3.8-2,5.9-2.5c0.5-0.1,0.9-0.2,1.4-0.2c2.4-0.1,4.3,2.1,3.9,4.5c-0.2,1.1-1,1.9-2.2,1.9c-0.8,0-1.7,0-2.6,0
		c-0.7,0-1.5,0.1-2.2,0.3c-0.9,0.2-1.4,0.8-1.5,1.7c-0.2,2.2,0,4.3,0.8,6.3c0.5,1.2,1.4,2.1,2.6,2.7c1.3,0.7,2.4,0.2,2.8-1.2
		c0.1-0.5,0.1-1.7-0.1-2.6c-0.2,0.3-0.4,0.5-0.6,0.7c-1.1,1.1-2.7,0.8-3.2-0.7c-0.4-1.2-0.3-2.4,0.3-3.5c0.3-0.6,0.8-1,1.4-1.1
		c1.1-0.2,2.2-0.3,3.3-0.1c1.3,0.2,2.2,1,2.7,2.2c0.6,1.2,0.8,2.6,0.9,3.9c0,0.6,0,1.2,0,1.8C322.9,302.9,321.6,304.4,319.8,305.5z
		 M292.1,238.6c1.7-0.7,3.4-0.9,5.2-0.7c1.2,0.2,2.4,0.5,3.6,0.8c3.2,1,5.5,3.1,6.9,6.1c1.5,3,1.3,6.1-0.3,9
		c-2.3,4.2-6,6.3-10.6,6.9c-0.9,0.1-1.9-0.1-2.7-0.6c-1-0.6-1.8-1.4-2-2.5c-0.2-1.4-0.3-2.8-0.4-3.6c0.2-3.1-0.3-5.5-0.7-7.9
		c-0.2-1.2-0.5-2.3-0.9-3.5C289.5,240.9,290.6,239.2,292.1,238.6z M218,208.8c-0.9,1.2-2.8,1.5-4,0.8c-0.8-0.5-1.2-1.1-1.2-2
		c0-0.9,0.5-1.6,1.3-2c0.5-0.2,1.1-0.3,1.7-0.5c0,0,0,0.1,0,0.1c0.3,0,0.7,0.1,1,0.1C218.4,205.6,219,207.4,218,208.8z M215.7,199.3
		c0.8,0.4,1.2,1.1,1.2,1.8c0,1.8-1.5,3.3-3.1,3.3c-1.5,0-2.7-1.4-2.5-2.9C211.5,199.4,213.8,198.3,215.7,199.3z M200,259.2
		c0.1,2.3,0.2,4.5,0.3,6.8c0.1,2.1,0.1,4.2,0.2,6.3c0,0.4,0,0.9-0.1,1.3c-0.3,1-1.2,1.5-2.1,1.2c-1.6-0.5-2.7-1.2-2.8-3.4
		c-0.2-3.3-0.4-6.6-0.6-9.8c-0.1-2-0.1-4-0.2-6.1c-0.5-0.1-1-0.2-1.6-0.3c-0.4-0.1-0.7-0.2-1.1-0.4c-0.4-0.2-0.6-0.6-0.5-1
		c0-0.5,0.3-0.8,0.8-0.9c0.7-0.1,1.3-0.3,2-0.3c1.9-0.1,3.8-0.2,5.7-0.2c0.8,0,1.6,0.2,2.3,0.3c0.1,0,0.1,0,0.2,0
		c0.6,0.2,0.9,0.6,0.9,1c0,0.5-0.3,0.9-0.9,1.1c-0.6,0.2-1.2,0.4-1.9,0.5c-0.2,0.1-0.5,0.1-0.7,0.2C200,256.7,200,257.9,200,259.2z
		 M199.3,247.3c-1.2-0.3-1.9-1.2-2.2-2.4c-0.3-1.3-0.6-2.6-0.8-4c-0.3-2.6-0.6-5.2-0.9-7.9c-0.1-0.5-0.3-1.1-0.5-1.6
		c-0.2-0.5-0.7-0.7-1.2-0.7c-0.9,0-1.7,0-2.6,0c-0.3,0-0.6,0.1-0.9,0.2c-0.8,0.3-0.9,0.6-0.9,1.5c0.2,2.2,0.5,4.3,0.6,6.5
		c0.1,1.4,0,2.8-0.5,4.1c-0.5,1.2-1.3,2.2-2.5,2.9c-2.3,1.2-4.7,0.4-5.6-2c-0.7-1.8-0.9-3.7-0.8-5.6c0.3-4.5,0.3-9,0.3-13.5
		c0-1.4-0.4-2.7-0.6-4.1c-0.3-1.8-0.6-3.6-0.8-5.5c-0.1-1.3,0.1-2.6,0.8-3.7c1.7-2.8,5.1-2.9,7-0.2c0.9,1.3,1.4,2.9,1.5,4.5
		c0.1,2.9,0.1,5.9,0.2,8.8c0,1.4,0.1,1.6,1.4,2c1,0.3,2.1,0.5,3.1,0.6c0.7,0.1,1.2-0.2,1.6-0.8c0.5-0.8,0.8-1.7,0.7-2.7
		c-0.1-1.6-0.3-3.2-0.1-4.8c0.1-0.9,0.3-1.8,0.7-2.6c0.4-0.8,1-1.4,1.7-1.8c1.6-1,3.3-0.5,4.3,1.1c0.6,1,0.8,2.2,0.8,3.4
		c0.1,1.6,0,3.2,0,4.7c-0.1,4.2,0.2,8.4,0.8,12.6c0.3,2.1,0.5,4.3,0.6,6.5c0,0.7-0.1,1.5-0.4,2.1C203.3,247.4,201,247.8,199.3,247.3
		z M189.9,266c0,1.6,0,3.2,0,4.7c0,0.5-0.1,1-0.2,1.5c-0.2,0.8-0.9,1.2-1.8,1.1c-0.1,0-0.2,0-0.3,0c-1.6-0.2-2.2-0.8-2.3-2.5
		c-0.2-4.1-0.3-8.1-0.4-12.2c0-1.5,0-3.1,0-4.6c0-0.1,0-0.2,0-0.3c0.2-1,0.8-1.6,1.6-1.8c1-0.1,2.1,0.4,2.4,1.3
		c0.2,0.6,0.3,1.2,0.3,1.8c0.1,1.1,0.2,2.3,0.2,3.4C189.7,261,189.8,263.5,189.9,266C189.9,266,189.9,266,189.9,266z M176.5,125.9
		c0.3,0.7,0.5,1.4,0.9,2c0.9,1.4,1.9,2.8,2.8,4.3c0.7,1.1,1.5,2.2,2.1,3.3c0.7,1.2,1.2,2.6,1.2,4c0,1.8-0.8,3.2-2.3,4.2
		c-1,0.6-2,0.9-3,0.9c-1.6,0-2.7-0.6-3.7-1.5c-0.8-0.9-1.4-1.9-1.8-3c0-0.1-0.1-0.2-0.1-0.3c-0.1-0.4,0-0.8,0.4-1.1
		c0.4-0.3,0.8-0.2,1.1,0.1c0.5,0.5,0.9,1.1,1.4,1.6c0.3,0.3,0.6,0.7,1,1c0.6,0.5,1.3,0.5,1.9,0.1c0.8-0.4,1-1,0.6-1.8
		c-0.7-1.4-1.4-2.7-2.2-4c-0.6-1-1.5-2-2.1-3c-0.7-1.2-1.4-2.4-2-3.7c-0.5-1.3-0.7-2.6-0.5-4c0.3-2.4,2.5-4.5,5.5-3.9
		c0.9,0.2,1.7,0.5,2.5,1.1c0.3,0.2,0.5,0.5,0.7,0.8c0.2,0.3,0.2,0.7,0,1.1c-0.3,0.4-0.6,0.4-1,0.3c-0.5-0.1-0.9-0.2-1.4-0.2
		c-0.4,0-0.8-0.1-1.1-0.1c-0.8,0-1.1,0.4-1.1,1.2C176.4,125.5,176.4,125.7,176.5,125.9z M185.4,159.5c0.5,0.7,1.1,1.3,1.7,1.9
		c1.3,1.3,2.7,2.6,4,4c0.9,0.9,1.6,2,1.8,3.4c0.3,1.8-0.6,3.8-2.3,4.6c-2.7,1.3-5.2,0.6-7-1.8c-0.1-0.1-0.1-0.1-0.1-0.2
		c-0.2-0.4-0.2-0.7,0.1-1.1c0.3-0.3,0.6-0.3,1-0.2c0.4,0.2,0.9,0.5,1.3,0.7c1.1,0.7,1.8,0.6,2.8-0.3c-0.3-0.9-0.7-1.6-1.3-2.2
		c-0.7-0.8-1.4-1.5-2.1-2.2c-1.2-1.2-2.2-2.4-2.9-3.9c-0.7-1.4-1.1-2.8-0.9-4.3c0.1-0.6,0.3-1.3,0.7-1.9c0.9-1.5,2.3-1.8,3.9-1.6
		c1.6,0.3,2.9,1.1,3.9,2.5c0.1,0.1,0.1,0.2,0.2,0.3c0.3,0.5,0.4,1,0,1.5c-0.4,0.5-0.9,0.5-1.4,0.3c-0.4-0.2-0.9-0.4-1.3-0.5
		c-0.7-0.2-1.4-0.5-2.1-0.4C184.9,158.5,185.1,159,185.4,159.5z M204.1,131c-0.8,5.7-1.6,11.4-2.3,17.1c-0.4,3.3-0.6,6.5-0.8,9.8
		c-0.1,1.2-0.1,2.3-0.1,3.5c0,3.3,0.5,6.5,1.5,9.7c0.3,0.9,0.4,1.8,0.6,2.6c0,0,0,0.1,0,0.1c0,0.8-0.2,1.3-0.7,1.5
		c-0.6,0.2-1.1,0-1.5-0.7c-0.4-0.7-0.8-1.4-1.1-2.2c-0.4-1.2-0.6-2.4-0.9-3.6c-0.6-3.3-0.9-6.5-0.9-11.1c0-3.5,0.5-8.4,1.3-13.2
		c0.8-4.9,1.6-9.9,2.3-14.8c0.3-2.2,0.3-4.4,0.4-6.7c0-0.6,0-1.1,0.1-1.7c0.1-0.4,0.2-0.8,0.7-0.9c0.4-0.1,0.8,0.1,1,0.7
		c0.2,0.6,0.4,1.3,0.5,1.9C204.6,125.7,204.5,128.4,204.1,131z M204.9,198.1c0,1.4-1.1,2.6-2.4,2.6c-1.4,0-2.5-1.2-2.5-2.8
		c0-1.5,0.9-2.5,2.3-2.5C203.8,195.5,204.9,196.6,204.9,198.1z M197.5,183.3c-0.6,0.3-1.2,0.3-1.9,0.4c-0.5,0.1-1,0-1.6,0
		c0,0.7,0,1.2,0,1.8c0.1,2,0.2,3.9,0.3,5.9c0.1,2.5,0.1,5,0.2,7.5c0,0.3,0,0.5,0,0.8c-0.1,1.2-0.7,1.8-1.9,2c-0.5,0.1-1.1,0.1-1.6,0
		c-0.8-0.1-1.3-0.7-1.5-1.5c0-0.2-0.1-0.4-0.1-0.6c-0.2-3.1-0.4-6.3-0.6-9.4c-0.1-2-0.1-4-0.1-6.1c0-0.2,0-0.3,0-0.6
		c-0.6-0.1-1.1-0.2-1.5-0.3c-0.5-0.1-1-0.3-1.5-0.5c-0.5-0.3-0.8-0.7-0.7-1.2c0.1-0.5,0.5-0.8,1-0.9c1-0.1,1.9-0.3,2.9-0.3
		c1.6,0,3.2,0.1,4.8,0.2c0.9,0.1,1.8,0.1,2.6,0.3c0.4,0.1,0.9,0.2,1.2,0.4C198.5,181.7,198.5,182.9,197.5,183.3z M180.5,171.6
		C180.5,171.6,180.5,171.7,180.5,171.6c-0.1,0.2-0.1,0.4-0.1,0.6c0,1.5-0.8,2.5-2.2,2.9c-1.1,0.3-2.1-0.2-2.4-1.3
		c-0.2-0.7-0.3-1.4-0.3-2.1c-0.2-2-0.2-3.9-0.4-5.9c-0.2-2.4-0.4-4.8-0.6-7.3c0-0.6,0-1.2,0.1-1.8c0.1-0.8,0.5-1.3,1.3-1.6
		c0.9-0.2,1.8,0,2.3,0.7c0.3,0.5,0.5,1,0.7,1.6c0.3,1.3,0.5,2.5,0.7,3.8C179.9,164.8,180.2,168.2,180.5,171.6z M173.5,186.2
		c0.4-1.3,1.2-2.4,2.2-3.2c1.5-1.3,3.2-1.5,5-0.6c1.1,0.5,2,1.4,2.6,2.4c1,1.6,1.6,3.3,2,5.1c0.7,2.9,0.5,5.8-0.6,8.6
		c-0.3,0.7-0.7,1.4-1.2,2.1c-1.2,1.5-3.1,2.1-4.9,1.5c-1.3-0.4-2.4-1.1-3.4-2.1c-1.7-1.7-2.6-3.8-2.9-6.2c-0.1-0.6-0.1-1.3-0.1-1.9
		C172.3,189.8,172.9,188,173.5,186.2z M203.6,209.3c-1,0.3-2,0.4-3,0c-0.4-0.1-0.9-0.4-1.2-0.6c-1.3-1-1.4-2.4-0.5-3.7
		c0.2-0.3,0.5-0.5,0.7-0.7c1.6-1.1,3.3-2.1,5.3-2.5c2-0.5,3.7,0.2,5,1.8c1.4,1.7,2.1,3.6,2.3,5.8c-0.1,0.7-0.2,1.3-0.4,1.9
		c-0.8,1.8-3,2.3-4.4,0.9c-0.5-0.5-0.9-1.1-1.2-1.7C205.6,209.5,204.6,209,203.6,209.3z M209.4,193.8c1.4,0.1,2.4,1.2,2.4,2.7
		c0,1.6-1.2,2.9-2.7,2.9c-1.4,0-2.5-1.2-2.5-2.7C206.6,195.5,207.9,193.7,209.4,193.8z M204.9,75.4c0.2-0.2,0.4-0.4,0.6-0.6
		c2.2-1.7,4.5-3.2,7-4.5c2.2-1.1,3.6,0.4,3.7,2.2c0.1,1.7-0.4,3.3-1,4.8c-0.2,0.6-0.7,0.8-1.2,0.8c-0.5-0.1-0.9-0.4-1-1.1
		c-0.1-1.1-0.5-2.2-0.3-3.3c0-0.1,0-0.2,0-0.4c-0.4,0.2-0.8,0.5-1.2,0.7c-1.3,0.8-2.6,1.5-3.9,2.3c-0.5,0.3-1,0.5-1.5,0.6
		c-0.6,0.2-1,0-1.2-0.4C204.4,76.3,204.5,75.9,204.9,75.4z M196.7,80.9c0.7-1.2,2.1-1.4,3.2-0.5c0.8,0.7,1.3,1.6,1.5,2.6
		c0.1,0.5,0.2,1,0.3,1.7c0.3-0.2,0.4-0.4,0.6-0.6c0.5-0.4,0.9-0.9,1.5-1.2c0.5-0.3,1.2-0.5,1.8-0.6c1.5-0.1,2.5,0.9,2.4,2.4
		c-0.1,0.5-0.2,1-0.5,1.5c-0.3,0.6-0.7,1.1-1.1,1.6c-1.2,1.4-2.6,2.5-4.2,3.5c-1.5,0.9-2.8,0.7-3.9-0.7c-1.1-1.5-1.7-3.2-2-5
		c-0.1-1-0.2-1.9-0.2-2.9C196.2,82.1,196.4,81.5,196.7,80.9z M196,141.5c0.1,0.5-0.2,0.9-0.6,1.2c-0.3,0.2-0.6,0.3-0.9,0.4
		c-2.1,0.5-4.2,0.6-6.3,0.1c-1.7-0.4-2.6-1.5-2.7-3.1c-0.2-3.3-0.4-6.7-0.6-10c-0.1-1.4-0.1-2.9-0.1-4.3c0-1,0.1-1.9,0.2-2.9
		c0.2-1.5,0.9-2.2,2.4-2.1c1.3,0.1,2.6,0.3,3.8,0.5c0.7,0.1,1.4,0.3,2.1,0.4c0.1,0,0.3,0.1,0.4,0.2c0.5,0.2,0.9,0.6,0.9,1.2
		c0,0.6-0.5,1-1,1.1c-0.7,0.2-1.4,0.2-2.1,0.3c-0.6,0-1.2-0.1-1.9-0.1c0.2,2.3,0.4,4.6,0.6,6.9c0.6,0,1.1,0,1.6,0
		c0.7,0.1,1.4,0.2,2.1,0.3c0.6,0.1,0.9,0.5,0.9,0.9c0,0.5-0.3,0.9-0.9,1c-0.7,0.2-1.5,0.3-2.2,0.3c-0.3,0-0.7,0-1.2,0
		c0.1,2.1,0.2,4.3,0.4,6.4c0.2,0,0.4,0.1,0.7,0.1c0.7,0,1.5-0.1,2.2-0.1c0.5,0,0.9,0.1,1.4,0.2C195.7,140.6,196,141,196,141.5z
		 M181.3,81.8c0.2-0.2,0.3-0.5,0.6-0.7c2.9-2.9,5.9-5.7,8.8-8.6c0.3-0.3,0.6-0.6,1-0.9c1.1-0.9,2.5-0.7,3.1,0.6
		c0.4,0.9,0.6,1.9,0.9,2.8c0.1,0.4,0,0.8,0,1.2c0,0.7-0.4,1.2-1,1.3c-0.5,0.1-1-0.2-1.3-0.8c-0.3-0.7-0.5-1.4-0.9-2.1
		c-0.3,0.3-0.5,0.5-0.8,0.8c-1.8,1.7-3.6,3.5-5.4,5.2c-0.8,0.7-1.7,1.4-2.6,2c-0.4,0.3-0.9,0.4-1.4,0.6c-0.4,0.1-0.8,0-1-0.3
		C181,82.5,181.1,82.1,181.3,81.8z M140.5,142.9c-1.7-0.4-2.6-1.3-2.7-3.1c-0.1-1.5-0.3-3-0.4-4.5c0-0.2,0-0.5-0.1-0.8
		c-1.4,0.1-2.8,0.2-4.3,0.3c0,0.5,0,1.1,0.1,1.6c0.1,1.3,0.2,2.7,0.2,4c0,0.3,0,0.7-0.1,1c-0.2,0.9-0.9,1.4-1.9,1.3
		c-0.1,0-0.2,0-0.3,0c-2.2-0.2-2.8-0.9-3-3.1c-0.3-4.2-0.6-8.5-1-12.7c-0.1-0.9-0.1-1.8,0-2.6c0.1-2,2.2-3.1,4-2.1
		c0.7,0.4,1.1,1.1,1.1,1.9c0.2,1.8,0.3,3.6,0.5,5.4c0.1,1,0.2,2.1,0.2,3.2c1.5,0.1,2.9,0.2,4.3,0.3c-0.1-1.3-0.2-2.4-0.3-3.6
		c-0.1-1.8-0.2-3.6-0.2-5.4c0-0.4,0.1-0.9,0.2-1.3c0.3-0.9,1.1-1.4,2-1.1c0.5,0.1,1.1,0.4,1.5,0.6c0.8,0.4,1.1,1.2,1.2,2
		c0.2,2.5,0.4,5,0.5,7.5c0.2,2.7,0.4,5.4,0.5,8.1c0,0.5,0,1,0,1.5C142.6,142.7,141.7,143.2,140.5,142.9z M140.4,116.8
		c-1.5-1.2-2.2-2.8-1.7-4.7c0.1-0.6,0.4-1.2,0.7-1.9c-0.2-0.1-0.4-0.3-0.6-0.4c-1.2-0.8-2.1-1.9-2.6-3.3c-0.8-2.3,0.3-4.6,2.6-5.7
		c2.8-1.2,6.1-0.3,7.9,2.2c0.1,0.1,0.2,0.3,0.3,0.5c0.2,0,0.3,0,0.5-0.1c6.1-1.7,12-3.9,18-6.1c3.6-1.3,7.2-2.4,10.8-3.7
		c0.1,0,0.3-0.1,0.5-0.2c0-0.3-0.1-0.6-0.1-0.9c-0.2-1.7,0.1-3.3,1-4.8c1.3-2.2,3.9-2.7,6.1-1.3c1.9,1.2,2.2,3,2,5
		c-0.1,1.2-0.5,2.4-1.3,3.4c0.4,0.2,0.7,0.3,1,0.4c1.8,0.8,3.1,2.1,3.6,4c0.4,1.7,0.1,3.2-1.3,4.3c-1.3,1.2-2.9,1.4-4.5,0.7
		c-0.8-0.4-1.4-0.9-2.1-1.4c-0.3-0.2-0.5-0.5-0.6-0.7c-6,2-12.1,3.4-18.1,5.1c-3.9,1.1-7.8,2.2-11.8,3.2c-0.6,0.2-1.2,0.3-1.9,0.5
		c0,1.3-0.3,2.6-0.9,3.7c-0.6,1.2-1.5,2.1-2.7,2.7C143.5,118.2,141.8,118,140.4,116.8z M154.4,139.2c-0.3,1-0.8,1.9-1.6,2.6
		c-1.2,1.1-2.5,1.4-4,0.8c-1.3-0.5-2.2-1.5-2.8-2.6c-0.7-1.3-1.1-2.7-1.4-4.1c-0.5-2.4-0.4-4.8,0.1-7.2c0.2-1.1,0.4-2.2,0.8-3.2
		c0.3-0.7,0.7-1.4,1.2-2c1.2-1.4,2.9-1.6,4.4-0.6c1.2,0.8,2.1,2,2.7,3.3c1,2.2,1.6,4.9,1.6,7.8C155.4,135.6,155,137.4,154.4,139.2z
		 M161.8,142.7c-1.3-0.9-2.1-2.3-2.7-3.7c-0.8-2.2-1.2-4.4-1.5-6.7c-0.2-1.8-0.5-3.7-0.7-5.5c-0.1-1.1-0.1-2.3,0.2-3.4
		c0.4-1.5,1.9-2.2,3.3-1.5c0.4,0.2,0.8,0.6,1,1c0.4,0.9,0.7,1.8,0.9,2.7c0.5,2.6,0.8,5.2,1.3,7.7c0.3,1.4,0.7,2.9,1,4.3
		c0.1,0.2,0.2,0.4,0.3,0.6c0.1,0,0.1,0,0.2,0c0.2-0.5,0.4-0.9,0.5-1.4c0.2-1.6,0.4-3.1,0.6-4.7c0.3-2.7,0.1-5.4-0.3-8.1
		c0-0.3-0.1-0.6,0-0.9c0.1-0.5,0.4-0.8,0.8-0.9c0.5-0.1,1,0,1.3,0.4c0.2,0.4,0.4,0.8,0.5,1.2c0.8,3,1.3,6,1.4,9.1
		c0,2.3-0.2,4.5-1,6.7c-0.3,0.8-0.7,1.7-1.3,2.4C166,143.8,163.7,144.1,161.8,142.7z M153.3,184.9c0.1-1.7,0.9-2.5,2.6-2.5
		c0.7,0,1.4,0,2,0.1c1.3,0.1,2.3,0.8,2.9,2c1.5,2.9,3.1,5.7,4.7,8.6c0.1,0.3,0.3,0.5,0.5,0.8c0.1,0,0.1-0.1,0.2-0.1
		c-0.2-1.7-0.3-3.3-0.5-5c-0.2-1.9-0.5-3.9-0.5-5.9c0-0.3,0-0.6,0.1-0.9c0.2-0.6,0.5-1,1.2-1.1c0.6-0.1,1.1,0.1,1.4,0.6
		c0.3,0.5,0.5,1.1,0.6,1.6c0.3,1.4,0.5,2.8,0.7,4.2c0.5,4,0.7,8.1,0.7,12.1c0,0.3,0,0.7-0.1,1c-0.2,0.4-0.4,0.9-0.8,1.1
		c-1.1,0.9-3.1,0.9-4.1-0.1c-0.7-0.7-1.4-1.5-1.9-2.3c-2-3.1-4-6.2-6-9.3c-0.2-0.2-0.3-0.5-0.7-0.7c0,0.6,0,1.3,0,1.9
		c0.1,2.9,0.2,5.9,0.3,8.8c0,0.1,0,0.3,0,0.4c-0.1,0.9-0.7,1.4-1.5,1.4c-0.8,0-1.4-0.6-1.5-1.5c-0.1-1.1-0.2-2.3-0.2-3.4
		c-0.1-2.4-0.1-4.9-0.2-7.3c0-1.3-0.1-2.7-0.2-4C153.3,185.4,153.3,185.2,153.3,184.9z M151.6,258.1c-0.4,0.3-1.1,0.3-1.6-0.2
		c-1.2-1.1-2.2-2.4-3-3.9c-2.1-3.9-3.7-8-4.7-12.3c-0.8-3.1-1.2-6.3-1.3-9.5c0-0.7-0.1-1.3-0.2-2c-1.1-0.3-1.5-1.1-1.6-2.2
		c-0.2-2-0.2-4,0-6.1c0.4-3.7,1.5-7.1,3.2-10.4c0.1-0.2,0.2-0.5,0.4-0.8c-0.4,0.1-0.6,0.2-0.9,0.2c-1.4,0.3-2.5-0.4-2.7-1.8
		c-0.1-0.7-0.1-1.5,0-2.2c0.9-4.4,2.4-8.6,4.8-12.4c0.4-0.6,0.8-1.2,1.3-1.7c0.5-0.6,1.1-0.6,1.5-0.3c0.4,0.3,0.4,0.8,0.1,1.5
		c-1,2.1-2.1,4.2-3,6.3c-1,2.3-1.8,4.7-2.3,7.2c-0.1,0.3-0.1,0.7-0.1,1.1c0.3-0.1,0.6-0.1,0.8-0.2c0.4-0.2,0.9-0.3,1.3-0.5
		c1.6-0.8,2.9,0.6,2.6,2c-0.2,1-0.6,1.9-0.9,2.8c-0.7,1.7-1.5,3.5-2.1,5.2c-1.1,3.2-1.5,6.4-1.5,9.8c1.4,0.2,1.7,1.3,1.9,2.5
		c0.2,1.4,0.3,2.8,0.5,4.2c0.4,4.3,1.6,8.5,3.1,12.6c1,2.7,2.2,5.3,3.8,7.7c0.4,0.5,0.7,1.1,0.9,1.7
		C152.1,257.2,152,257.7,151.6,258.1z M156.4,229.2c-1.9-0.1-3.7-0.2-5.7-0.3c-0.2,0.8-0.5,1.6-0.7,2.5c-0.2,0.8-0.4,1.6-0.6,2.4
		c-0.1,0.3-0.2,0.6-0.4,0.9c-0.4,0.7-0.8,0.9-1.6,0.6c-0.8-0.3-1.1-0.6-0.9-1.5c0.5-2.1,1.1-4.2,1.7-6.3c1.2-4,2.4-8,3.7-12
		c0.3-1,0.6-2.1,0.8-3.1c0.6-2.4,3.1-2.9,4.8-1.4c0.6,0.5,1,1.2,1.3,1.9c0.7,1.9,1.4,3.7,2,5.6c0.9,2.8,1.6,5.7,2.5,8.5
		c0.4,1.4,0.9,2.8,1.3,4.2c0.2,0.6,0.3,1.2,0.3,1.8c0,1-0.5,1.7-1.5,1.9c-0.8,0.2-1.6,0.3-2.4,0.3c-1.7,0-2.7-0.7-3.3-2.3
		C157.2,231.7,156.8,230.5,156.4,229.2z M171.3,261.8c-0.2-0.5-0.4-0.9-0.6-1.4c-0.1,0-0.1,0-0.2,0c-0.1,0.8-0.3,1.6-0.4,2.5
		c-0.5,2.3-0.9,4.5-1.4,6.8c-0.1,0.6-0.4,1.2-0.7,1.7c-0.3,0.6-0.8,1.1-1.5,1c-0.7,0-1.2-0.4-1.5-1.1c-0.3-0.7-0.6-1.3-0.9-2
		c-1.5-3.9-3-7.8-4.5-11.7c-0.5-1.3-0.9-2.7-1.4-4.1c-0.5-1.2,0.1-2.4,1.2-3c1.9-1,3.5-0.5,4.7,1.4c0.5,0.8,0.8,1.7,1.1,2.6
		c0.6,2,1.2,4.1,1.7,6.1c0.1,0.2,0.1,0.4,0.2,0.5c0,0,0.1,0,0.1,0c0.3-1.2,0.5-2.4,0.8-3.6c0.2-0.9,0.6-1.7,0.9-2.5
		c0.4-0.9,1.1-1.2,2-1.1c0.6,0.1,1.2,0.2,1.7,0.3c1.2,0.3,2,1,2.4,2.1c0.6,1.8,1.3,3.6,1.9,5.4c0.1,0.4,0.2,0.7,0.5,1.1
		c0.1-0.4,0.1-0.9,0.2-1.3c0.2-2.6,0.5-5.2,1.2-7.7c0.2-0.6,0.2-1.2,0.3-1.7c0.1-0.7,0.5-1.2,1.2-1.3c0.8-0.2,1.4,0.2,1.8,0.8
		c0.5,0.6,0.6,1.4,0.5,2.2c-0.3,1.7-0.7,3.5-1,5.2c-0.5,3-1.1,5.9-1.6,8.9c-0.2,1.3-0.5,2.6-1.1,3.8c-0.1,0.2-0.2,0.4-0.3,0.5
		c-0.7,1.2-2,1.3-2.8,0.2c-0.5-0.6-0.9-1.3-1.2-2.1C173.6,267.5,172.4,264.7,171.3,261.8z M181.3,304.6c-0.2,0.8-0.3,1.6-0.6,2.3
		c-1.6,4-2,8.2-1.9,12.5c0.1,3.9,0.2,7.9,0.2,11.8c0,3.1-0.1,6.2-0.8,9.2c-0.7,3.1-2,6-4,8.5c-1.6,2-3.6,3.5-6.1,4.3
		c-2.8,0.9-5.9,0-7.8-2.3c-0.9-1.1-1.4-2.3-1.2-3.7c0.1-1,0.6-1.8,1.5-2.4c2-1.4,4.2-1.6,6.4-0.7c0.4,0.1,0.7,0.4,1,0.7
		c0.2,0.2,0.4,0.5,0.2,0.8c-0.1,0.2-0.5,0.3-0.7,0.3c-0.5,0-1-0.2-1.6-0.2c-1.2-0.1-2.3,0.1-3.4,0.6c-1.3,0.7-1.5,1.7-0.6,2.9
		c1.1,1.4,3.1,2.1,4.9,1.6c1.9-0.6,3.4-1.7,4.7-3.1c1.8-2.1,2.9-4.7,3.5-7.4c0.5-2.2,0.7-4.4,0.7-6.6c0-2.5,0-5.1,0-7.6c0,0,0,0,0,0
		c0-2.9-0.1-5.9,0-8.8c0.1-3,0.6-5.9,1.5-8.8c0.5-1.4,1.1-2.8,1.9-4c0.1-0.1,0.2-0.3,0.3-0.4c0.4-0.4,0.8-0.5,1.3-0.3
		C181.2,303.6,181.4,304.1,181.3,304.6z M180.7,294.3c-1,1.4-2,2.8-2.9,4.2c-0.2,0.3-0.4,0.6-0.7,0.9c-0.3,0.4-0.8,0.6-1.3,0.3
		c-0.5-0.2-0.8-0.6-0.6-1.2c0.2-0.9,0.4-1.9,0.9-2.7c0.8-1.4,1.7-2.7,2.6-3.9c0.8-1.1,1.7-2.1,2.4-3.2c0.9-1.2,1.5-2.6,1.7-4.1
		c0.2-0.9-0.1-1.8-0.5-2.6c-0.7-1.2-2.6-1.6-3.7-0.7c-0.5,0.4-0.8,0.8-0.6,1.4c0.1,0.3,0.1,0.6-0.2,0.9c-0.3,0.3-0.7,0.2-1.1,0
		c-0.7-0.4-1.1-1.3-1-2.3c0.3-1.6,1.1-2.7,2.6-3.3c0.7-0.3,1.5-0.4,2.2-0.6c2.8,0.1,5.1,2.3,5.5,5.2c0.2,1.7-0.1,3.3-0.6,4.8
		c-0.7,1.8-1.7,3.3-2.9,4.8C181.9,292.9,181.2,293.5,180.7,294.3z M186.3,344.8c-0.2,0-0.3,0.1-0.5,0.1c-1,0.1-1.4-0.4-1.1-1.4
		c0.4-1.7,1-3.4,1.3-5.1c0.3-1.8,0.5-3.7,0.7-5.5c0.2-3.2,0.4-6.5,0.5-9.7c0-2.2-0.2-4.4-0.2-6.7c0-2.1,0-4.1,0.1-6.2
		c0-1.7,0.2-3.4,0.3-5.1c0.2-4,0.7-8,2-11.8c0.6-1.6,1-3.3,1.5-4.9c0.2-0.6,0.5-1.2,0.8-1.8c0.1,0,0.2,0,0.3,0
		c0.4,0.5,0.8,0.9,1.2,1.4c0.9,1.3,1.4,2.7,1.8,4.2c1.1,3.9,1.8,7.8,2,11.8c0.3,5.7,0.7,11.5,0.6,17.2c-0.1,4.7-0.5,9.4-1.9,13.9
		c-0.6,2.2-1.7,4.2-3.2,5.9C190.7,343.1,188.6,344.2,186.3,344.8z M209.3,345.4c-0.1,2.9-0.8,5.6-2.1,8.1c-1.7,3.2-4.3,5-7.8,5.5
		c-2.6,0.4-6.4-0.7-8.3-3.9c-1-1.8-1-3.6-0.1-5.4c1.3-2.4,4.5-4.4,8-3.4c0.9,0.3,1.7,0.7,2.6,1.1c0.6,0.3,1.1,0.8,1.3,1.5
		c0.2,0.6-0.2,1.1-0.8,1c-0.3,0-0.6-0.2-0.9-0.3c-1.1-0.4-2.2-0.8-3.3-0.8c-1.6-0.1-2.9,0.6-3.8,1.9c-0.7,1-0.7,1.9,0.2,2.9
		c1.5,1.7,3.3,2.3,5.5,1.8c2.1-0.5,3.7-1.7,4.7-3.6c1.2-2.3,1.6-4.7,1.7-8.3c-0.2-1.4-0.4-3.7-0.8-6c-0.7-4.3-1.5-8.6-1.8-13
		c-0.3-4.3-0.5-8.7,0-13c0.3-3.4,1-6.7,2.4-9.9c0.1-0.2,0.2-0.4,0.3-0.6c0.4-0.7,1-0.9,1.7-0.7c0.7,0.2,1.1,0.9,0.9,1.6
		c-0.2,1-0.4,2-0.7,3c-1.6,4.9-1.9,9.9-1.5,14.9c0.4,5.6,1.3,11.1,2.1,16.7C209,339.5,209.4,342.4,209.3,345.4z M210.9,296
		c-1.3-0.8-2.8-1.1-4.2-1.7c-3.3-1.3-6-3.4-7.8-6.5c-0.9-1.6-1.4-3.3-1.1-5.1c0.3-2.2,2.1-4.1,4.1-4.6c0.3-0.1,0.7-0.1,1-0.2
		c3.1,0,5.7,2.8,5.4,5.7c0,0.4-0.1,0.8-0.3,1.2c-0.3,0.6-0.9,0.9-1.5,0.9c-0.5-0.1-1-0.6-1.2-1.2c-0.1-0.3,0-0.5-0.1-0.8
		c-0.1-1.1-0.6-1.9-1.7-2.3c-0.8-0.3-1.3-0.1-1.8,0.5c-0.7,0.9-0.8,1.9-0.5,2.9c0.3,0.7,0.6,1.4,1,2c1.2,1.8,2.9,3.2,4.9,4.2
		c0.8,0.4,1.6,0.8,2.4,1.3c0.6,0.4,1.3,0.9,1.8,1.4c0.3,0.4,0.5,0.9,0.6,1.4C212,296,211.4,296.4,210.9,296z M222.3,273.7
		c-0.1,0.6-0.4,1.1-1,1.3c-0.8,0.2-1.6,0.3-2.4,0.1c-0.6-0.2-1.1-0.6-1.2-1.3c-0.1-0.5-0.2-0.9-0.2-1.4c-0.1-2.1-0.2-4.2-0.3-6.2
		c0-0.2-0.1-0.4-0.1-0.6c-1.7,0.1-3.4,0.3-5.2,0.4c0,0.3,0,0.6,0,0.8c0,1.9,0,3.9,0,5.8c0,0.5,0,1.1-0.1,1.6c-0.2,1-0.9,1.4-1.9,1.2
		c-2.3-0.4-2.7-0.8-2.9-3.2c-0.1-0.8-0.1-1.7-0.1-2.5c-0.1-2.5-0.1-4.9-0.2-7.4c0-2.1-0.1-4.2-0.1-6.2c0-0.2,0-0.4,0-0.6
		c0.1-1.1,0.5-1.6,1.6-1.7c0.5-0.1,1.1-0.1,1.7,0c1.2,0.2,1.8,0.9,1.8,2.1c0.1,2.5,0.2,4.9,0.3,7.4c0,0.2,0,0.3,0,0.5
		c1.7-0.1,3.3-0.2,5.1-0.3c-0.1-1.1-0.1-2.2-0.2-3.3c0-1.7,0-3.5,0-5.2c0-2.2,1.4-2.8,3.3-2.1c1,0.3,1.5,1,1.6,2.1
		c0,0.8,0.1,1.6,0.1,2.5c0.1,4,0.2,8,0.4,12c0,1.2,0.1,2.3,0.2,3.5C222.4,273.1,222.4,273.4,222.3,273.7z M221.2,245.9
		c-1.8,1.5-3.8,2.1-6.1,1.6c-1.2-0.3-2.2-1-3.1-1.8c-2-1.9-3.1-4.3-3.7-7c-0.8-3.2-0.6-6.5,0.1-9.7c0.2-1.1,0.5-2.2,0.8-3.2
		c0.2-0.6,0.4-1.2,0.7-1.8c1.9-4.2,6.7-5,10.1-2.8c1.3,0.9,2.3,2.1,3.1,3.4c1.1,2,1.8,4.3,2.1,6.6c0.2,1.1,0.2,2.2,0.3,3.3
		c-0.1,2.8-0.5,5.5-1.7,8C223.1,243.8,222.3,245,221.2,245.9z M238.3,271.5c-0.5,0.7-1,1.5-1.6,2.1c-2.3,2.2-5.3,2.4-7.8,0.5
		c-1.8-1.4-2.8-3.3-3.3-5.5c-0.8-4.3,0.1-8.2,2.6-11.7c1.4-1.9,3.5-2.5,5.7-1.7c2.2,0.8,3.8,2.2,4.8,4.3c0.9,1.8,1.3,3.7,1.3,5.5
		C240,267.4,239.5,269.5,238.3,271.5z M237.3,247.2c-0.5-1.7-0.4-3.4-0.3-5.1c0.1-1,0.2-1.9,0.3-3c-1.5,0.7-2.8,0.4-4.1-0.4
		c0,0.3-0.1,0.5-0.1,0.7c-0.1,2.1,0,4.1,0.3,6.1c0.1,0.6,0.1,1.3-0.1,1.9c-0.3,1.4-1.3,2.2-2.6,2.5c-1.4,0.3-2.6-0.1-3.5-1.1
		c-0.5-0.6-0.7-1.2-0.8-2c-0.1-1.4,0.2-2.9,0.5-4.3c0.3-1.4,0.6-2.8,0.8-4.2c0.3-2,0.1-4.1-0.1-6.1c-0.2-2.7-0.7-5.3-1.2-7.9
		c-0.2-1,0.1-2,0.7-2.8c1.1-1.6,3.2-1.8,4.5-0.3c0.5,0.6,1,1.3,1.2,2.1c0.5,1.6,0.9,3.2,1.2,4.8c0.3,1.4,0.6,2.7,0.9,4.1
		c0,0.2,0.1,0.4,0.2,0.8c0.2-0.4,0.4-0.7,0.5-1c0.4-1.3,0.8-2.6,1.2-3.9c0.4-1.3,0.8-2.5,1.3-3.7c0.4-1,1-2,1.8-2.8
		c1.6-1.5,3.7-1.1,4.4,1c0.4,1.3,0.4,2.6,0.4,3.9c-0.1,3.7-0.2,7.3-0.2,11c0,1.6,0.1,3.2,0.1,4.7c-0.1,1.3-0.3,2.6-0.5,3.9
		c-0.2,0.9-0.6,1.8-1.3,2.5C240.8,250.4,238,249.7,237.3,247.2z M254,269.3c-0.3,1.1-0.7,2.1-1.1,3.1c-0.5,1.1-1.3,2-2.3,2.8
		c-1.5,1.1-3.1,1.1-4.7,0.2c-1-0.6-1.8-1.5-2.4-2.5c-0.8-1.5-1.2-3.2-1.4-4.9c-0.1-1.6-0.1-3.2-0.2-4.8c0.1,0,0.1,0,0.2,0
		c0-1.7-0.1-3.4-0.1-5.1c-0.1-1.9,0.8-2.3,2.4-2.7c0.6-0.2,1.3,0.3,1.6,1c0.3,0.7,0.5,1.4,0.5,2.1c0.2,1.5,0.2,3,0.3,4.6
		c0.2,1.9,0.3,3.7,0.6,5.6c0.1,0.7,0.3,1.4,0.6,2c0.5,0.9,0.9,1,1.6,0.2c0.6-0.6,1.1-1.4,1.2-2.3c0.5-2.7,0.9-5.4,0.8-8.2
		c-0.1-1.2,0-2.3,0-3.5c0-0.1,0-0.3,0-0.4c0.1-0.6,0.5-1,1-1.1c0.5-0.1,1,0.2,1.2,0.8c0.3,0.7,0.5,1.5,0.6,2.3
		c0.1,0.5,0.1,1.1,0.2,1.7C254.8,263.1,254.8,266.3,254,269.3z M251.5,250.7c-1.8-0.5-3-1.7-3.6-3.5c-0.6-1.6-0.8-3.3-0.9-5
		c-0.1-1.4-0.1-2.9-0.2-4.4c0.1-1.8,0.1-3.6,0.2-5.5c0.1-1.3,0.3-2.5,0.5-3.7c0.5-2.3,2-3.4,4.3-3c1.7,0.3,3.4,0.7,5.1,1
		c0.9,0.2,1.8,0.4,2.7,0.7c1.2,0.4,1.9,1.3,2,2.5c0.1,0.4,0,0.9-0.1,1.3c-0.7,2.3-2.5,3.5-4.9,3.4c-0.4,0-0.8-0.1-1.2-0.1
		c-0.7,0-1.3,0.3-1.6,1c-0.3,0.7,0,1.3,0.3,1.8c0.2,0.4,0.6,0.3,0.9,0.3c0.7-0.1,1.4-0.3,2.2-0.4c0.4-0.1,0.8-0.1,1.2,0
		c0.7,0.1,1.3,0.6,1.5,1.4c0.2,0.8,0,1.4-0.6,1.9c-0.7,0.5-1.4,0.9-2.1,1.2c-0.7,0.3-1.4,0.6-2,0.9c-0.3,0.1-0.5,0.3-0.8,0.4
		c-0.3,0.2-0.5,0.4-0.3,0.8c0.2,0.4,0.5,0.6,0.9,0.5c0.3-0.1,0.5-0.2,0.8-0.3c0.7-0.2,1.5-0.5,2.2-0.6c1.2-0.1,2.3,0.3,2.9,1.3
		c0.7,1.1,0.5,2.2-0.2,3.2c-1.2,1.8-2.9,2.8-5,3.2C254.3,251.2,252.9,251.1,251.5,250.7z M267.2,257.6c-0.5,0.3-1.1,0.3-1.7,0.5
		c-0.3,0.1-0.6,0-1,0c0,2.5,0.1,4.8,0.1,7.1c0,1.2,0.1,2.4,0.1,3.6c0.1,1.8,0.1,3.6,0.2,5.4c0,0.6,0,1.3-0.2,1.9
		c-0.3,1.1-1.1,1.6-2.2,1.6c-0.1,0-0.3,0-0.4-0.1c-2.1-0.1-3.1-1.3-3.2-3.3c-0.3-4.5-0.3-9-0.3-13.5c0-1.1,0.1-2.2,0.2-3.4
		c-0.4-0.1-0.7-0.2-1.1-0.3c-0.3-0.1-0.6-0.2-0.9-0.4c-0.8-0.5-0.8-1.5,0.1-1.9c0.4-0.2,0.9-0.3,1.4-0.4c2.4-0.2,4.7,0,7.1,0.2
		c0.7,0.1,1.4,0.2,2,0.7C268.2,256.1,268.2,257.1,267.2,257.6z M269.6,242.7c-0.6-0.8-1.1-1.8-1.5-2.8c-0.2-0.4-0.3-1-0.3-1.4
		c0-1.5,1.1-2.5,2.6-2.5c0.9,0,1.8,0.4,2.5,0.9c0.8,0.6,1.6,1.2,2.4,1.9c0.1-0.8,0.1-1.5,0.3-2.1c0.2-0.9,0.4-1.9,0.7-2.8
		c0.4-1.2,1.2-2.1,2.6-2.1c1.4,0,2.3,0.8,2.8,2c0.5,1,0.6,2,0.7,3.1c0.2,1.8,0,3.6-0.3,5.3c-0.1,1-0.4,2-0.6,2.9
		c-0.1,0.4-0.3,0.8-0.5,1.2c-0.7,1.5-2,2.1-3.6,1.8c-0.5-0.1-1.1-0.2-1.6-0.5C273.5,246.5,271.2,245,269.6,242.7z M283.1,275.4
		c-0.4-0.8-0.7-1.7-1.1-2.5c-0.1-0.3-0.2-0.5-0.3-0.7c-1.8,0.2-3.4,0.3-5.2,0.4c-0.2,1-0.4,2.1-0.6,3.3c-0.1,0.8-0.4,1.5-1,2
		c-0.9,0.9-2,0.7-2.4-0.6c-0.2-0.7-0.2-1.3-0.1-2c0.4-1.9,0.8-3.7,1.3-5.6c0.8-2.8,1.2-5.6,1.8-8.4c0.2-1.2,0.4-2.4,0.7-3.5
		c0.1-0.3,0.1-0.6,0.2-0.8c0.5-1,1.5-1.4,2.6-1.1c0.8,0.3,1.3,0.8,1.7,1.4c0.7,1.2,1.5,2.3,2,3.6c1.6,4.1,3.2,8.3,4.8,12.5
		c0.1,0.3,0.3,0.7,0.3,1c0.3,1.1-0.3,2-1.3,2.3C284.7,277.2,283.8,276.7,283.1,275.4z M297.3,288.5c-0.2,0.5-0.5,0.9-0.8,1.3
		c-0.9,1.2-2,2.1-3.3,2.9c-1.4,0.9-2.8,0.7-3.9-0.6c-0.3-0.4-0.6-0.8-0.8-1.3c-0.9-2-1.3-4-1.2-6.1c0-0.9,0.2-1.9,1-2.5
		c0.7-0.6,1.5-0.6,2.2-0.1c0.7,0.5,1.2,1.3,1.5,2.1c0.2,0.8,0.4,1.5,0.6,2.4c0.6-0.3,1.2-0.6,1.7-0.9c1.1-0.5,2-0.5,2.6,0.1
		C297.6,286.4,297.7,287.4,297.3,288.5z M300.5,278.4c-1.9-3-2.4-6.3-1.6-9.7c0.3-1.3,0.7-2.6,1.2-3.8c1.1-2.6,3.2-4,6-4.2
		c3.9-0.2,6.9,1.4,9,4.6c1.5,2.2,2.2,4.8,2.2,7.3c-0.1,4.1-1.6,7.4-4.9,9.7c-1.2,0.8-2.7,1.1-4.2,1
		C304.8,283.1,302.3,281.2,300.5,278.4z M291,355.2c-1-0.2-2-0.3-2.9-0.5c-0.7-0.2-1.3-0.5-1.9-0.9c-2.5-1.7-2.9-4.7-1.2-7.1
		c1.2-1.6,3-2.2,4.8-1.6c0.9,0.3,1.7,0.8,2.3,1.5c0.3,0.3,0.5,0.7,0.6,1.1c0.1,0.7-0.4,1.1-1.1,0.9c-0.3-0.1-0.6-0.3-0.9-0.5
		c-0.5-0.2-1-0.5-1.5-0.6c-0.9-0.2-1.6,0.1-2.1,0.8c-0.6,0.9-0.6,1.8,0,2.5c0.6,0.7,1.3,1.1,2.2,1.3c1.2,0.3,2.5,0.3,3.7,0
		c2-0.5,3.5-1.6,4.4-3.5c0.7-1.4,1-3,1.4-4.5c0.3-1.5,0.6-3.1,1.1-4.6c0.2-0.9,0.6-1.8,1.1-2.6c0.8-1.4,2-2.4,3.5-3
		c1.2-0.5,2.4-0.4,3.5,0.2c0.5,0.3,0.7,0.6,0.6,1c-0.1,0.5-0.5,0.6-0.9,0.7c-0.3,0-0.5,0-0.8,0c-1.4-0.2-2.4,0.5-3.2,1.5
		c-0.7,0.8-1.1,1.7-1.4,2.6c-0.4,1.8-0.8,3.7-1.2,5.5c-0.4,1.6-0.8,3.2-1.6,4.7C297.6,353.5,294.8,355.1,291,355.2z M329,349.8
		c-0.3,1.1-0.5,2.2-0.9,3.3c-1.2,3.1-3.6,4.7-6.8,5.3c-0.5,0.1-1,0.1-1.4,0.1c-2.4,0-4.5-0.6-6.6-1.3c-1.6-0.5-3.1-1-4.7-1.4
		c-1.2-0.3-2.4-0.1-3.6,0.5c-0.9,0.5-1.6,1.3-1.8,2.4c-0.6,2.3,1.7,3.8,3.5,3.3c0.8-0.2,1.5-0.7,1.8-1.5c0.1-0.3,0.2-0.5,0.4-0.8
		c0.3-0.4,0.7-0.4,1,0c0.2,0.3,0.4,0.7,0.4,1c0.1,1.2-0.4,2.1-1.3,2.8c-3,2.3-7.4,0.7-8.3-3c-0.6-2.4,0.4-5,2.5-6.6
		c1.9-1.4,4-1.8,6.2-1.3c1.6,0.4,3.1,0.9,4.6,1.4c1.5,0.5,3,1.2,4.6,1.4c0.8,0.1,1.6,0.1,2.4,0c2.8-0.4,4.6-2.3,5.2-5.5
		c0.1-0.5,0.2-1,0.4-1.5c0.2-0.6,0.8-0.9,1.3-0.8c0.5,0.1,1,0.5,1.1,1.1C329,349.1,329.1,349.5,329,349.8z M327.6,301.2
		c0.4-1.6,1-3.1,2.2-4.2c1.2-1.2,2.7-1.7,4.4-1.2c2.8,0.8,4.4,4.5,2.1,7.3c-0.2,0.2-0.5,0.4-0.8,0.6c-0.5,0.2-0.9,0.2-1.3-0.2
		c-0.4-0.4-0.4-0.8-0.3-1.3c0.1-0.2,0.3-0.4,0.4-0.7c0.1-0.4,0.3-0.9,0.3-1.3c0-0.7-0.4-1.2-1-1.4c-0.6-0.2-1.2,0-1.6,0.4
		c-0.8,0.8-1.4,1.8-1.6,2.9c-0.2,1-0.3,2-0.4,3c0.1,2.3,0.5,4.6,1.4,6.7c0.3,0.8,0.7,1.6,1.4,2.2c0.4,0.4,0.4,0.9-0.1,1.3
		c-0.4,0.3-0.8,0.3-1.3,0.1c-0.9-0.3-1.4-0.9-1.9-1.7c-0.8-1.3-1.3-2.7-1.7-4.2C327.2,306.7,327,304,327.6,301.2z M328.7,317
		c1.2,0.4,2,1.2,2.7,2.2c0.8,1.2,1.2,2.6,1.4,4c0.1,0.8,0.1,1.5,0.2,2c0,2.8-0.5,5.2-1.5,7.4c-0.9,2-1.8,4-2.9,5.9
		c-0.8,1.5-1.8,2.9-3,4.1c-0.8,0.8-1.5,1.6-2.2,2.5c-0.6,0.8-1.1,1.6-1.6,2.4c-0.2,0.4-0.3,0.9-0.4,1.4c-0.1,0.4,0.1,0.8,0.6,0.9
		c0.1,0,0.3,0.1,0.4,0.1c0.7,0.3,0.8,1,0.3,1.6c-0.6,0.6-1.6,0.8-2.4,0.3c-0.8-0.4-1.2-1.2-1.5-2c-0.3-1.1-0.1-2.1,0.3-3.2
		c0.4-1,1-1.9,1.7-2.7c0.9-1,1.8-2,2.8-2.9c3.1-3.2,5.3-6.9,6.6-11.2c0.7-2.2,0.8-4.4,0.3-6.6c-0.2-1-0.6-2-1.2-2.9
		c-0.4-0.5-0.8-0.9-1.4-1.1c-1.2-0.2-2,0.4-2.1,1.5c0,0.2,0,0.5,0,0.7c0,0.3-0.1,0.5-0.2,0.8c-0.2,0.6-0.7,0.9-1.2,0.8
		c-0.6,0-1-0.4-1.1-0.9c-0.1-0.6-0.2-1.2,0-1.7c0.2-0.7,0.5-1.4,0.9-2C325.2,316.9,327,316.4,328.7,317z M340.6,214.9
		c-0.2,0.5-0.4,1-0.7,1.4c-0.8,1.2-1.8,2.2-2.9,3.1c-1.2,1-2.3,2-3.4,3c-1.9,1.8-3.2,4-3.7,6.5c-0.1,0.4-0.2,0.9-0.4,1.3
		c-0.4,0.7-1,0.8-1.4,0c-0.3-0.6-0.4-1.3-0.5-1.6c0.1-2.3,0.7-4.1,1.8-5.7c1-1.4,2.2-2.6,3.6-3.7c1.2-0.9,2.3-1.8,3.5-2.7
		c0.6-0.5,1.2-1.1,1.7-1.7c0.3-0.3,0.5-0.6,0.8-0.8c0.3-0.3,0.7-0.3,1.1-0.1C340.6,214.1,340.8,214.5,340.6,214.9z"/>
	<path class="st118" d="M217.3,225.7c-0.8-0.5-1.5-0.3-2.1,0.5c-0.4,0.6-0.8,1.3-1,2c-0.3,1.1-0.4,2.2-0.6,3.4
		c0.2,1.1,0.4,2.2,0.7,3.2c0.2,0.6,0.5,1.1,0.8,1.6c0.5,0.8,1.2,0.9,2,0.4c0.4-0.2,0.7-0.5,1-0.9c1.9-2.5,2.3-5.3,1.1-8.3
		C218.8,226.8,218.1,226.1,217.3,225.7z"/>
	<path class="st118" d="M300.5,251.1c0.3-0.7,0.5-1.4,0.7-2.1c0.4-1.4,0.2-2.8-0.5-4.1c-0.7-1.4-1.9-1.9-3.5-1.6
		c-0.3,2.4,0.5,8.1,1.4,9.3C299.5,252.4,300.1,251.9,300.5,251.1z"/>
	<path class="st118" d="M308.1,274.6c0.7-0.3,1.1-0.8,1.4-1.5c0.4-0.8,0.6-1.6,0.6-2.5c0-1.1-0.2-2-0.8-2.9
		c-0.6-1.1-1.7-1.5-2.9-1.2c-1.1,0.3-2,1-2.5,2.1c-0.8,1.9-0.5,3.9,1,5.4C306,275,307,275.1,308.1,274.6z"/>
	<path class="st118" d="M153.6,219.5c-0.6,2.1-1.3,4.2-1.9,6.4c1.3-0.1,2.4-0.1,3.7-0.2c-0.5-2.2-1.1-4.2-1.6-6.2
		C153.8,219.5,153.7,219.5,153.6,219.5z"/>
	<path class="st118" d="M233.9,259.9c-0.7-0.6-1.3-0.5-1.9,0.2c-0.3,0.4-0.6,0.9-0.8,1.3c-0.7,1.4-1,3-1,4.3c0,1.4,0.2,2.4,0.5,3.2
		c0.5,1.3,2.4,1.7,3.4,0.8c0.4-0.3,0.7-0.7,0.9-1.2c1.1-2.4,1.2-4.8,0.1-7.2C234.8,260.8,234.3,260.3,233.9,259.9z"/>
	<path class="st118" d="M278.5,264.6c-0.4,1.7-1.1,3.4-1.4,5.3c1.2-0.1,2.3-0.2,3.5-0.4c-0.7-1.7-1.3-3.3-1.9-4.9
		C278.7,264.5,278.6,264.6,278.5,264.6z"/>
	<path class="st118" d="M108.1,121.5c-1.2,1.9-2.3,3.8-3.5,5.8c1.6,0.5,3,0.9,4.6,1.4c-0.3-2.4-0.6-4.8-0.9-7.1
		C108.2,121.5,108.2,121.5,108.1,121.5z"/>
	<path class="st118" d="M178.3,197.1c0.3,0.5,0.7,0.9,1.3,1.1c0.6-0.5,0.9-1.1,1.1-1.8c0.6-2.3,0.8-4.7,0.4-7.1
		c-0.1-0.7-0.3-1.4-0.6-2c-0.3-0.7-0.8-1.3-1.7-1.4c-0.2,0.3-0.4,0.7-0.6,1c-0.8,2.1-1.2,4.3-1,6.5
		C177.3,194.7,177.6,196,178.3,197.1z"/>
	<path class="st118" d="M149,125.6c-0.1,0.4-0.2,0.6-0.3,0.8c-0.6,2.6-0.9,5.2-0.4,7.8c0.2,1.1,0.5,2.2,0.9,3.3
		c0.2,0.5,0.5,1.1,1.1,1.5c0.2-0.5,0.5-0.9,0.6-1.4c0.3-1.1,0.5-2.2,0.6-3.3c0.2-2.5-0.2-4.8-1.2-7.1
		C150,126.7,149.7,126.1,149,125.6z"/>
</g>
</svg>
